HIERARCHY
ROOT Hips
{
	OFFSET 0.00000 0.00000 0.00000
	CHANNELS 6 Xposition Yposition Zposition Zrotation Yrotation Xrotation 
	JOINT LHipJoint
	{
		OFFSET 0 0 0
		CHANNELS 3 Zrotation Yrotation Xrotation
		JOINT LeftUpLeg
		{
			OFFSET 1.81424 -1.42316 1.18090
			CHANNELS 3 Zrotation Yrotation Xrotation
			JOINT LeftLeg
			{
				OFFSET 2.15837 -5.93008 0.00000
				CHANNELS 3 Zrotation Yrotation Xrotation
				JOINT LeftFoot
				{
					OFFSET 2.51759 -6.91701 0.00000
					CHANNELS 3 Zrotation Yrotation Xrotation
					JOINT LeftToeBase
					{
						OFFSET 0.18318 -0.50327 1.95113
						CHANNELS 3 Zrotation Yrotation Xrotation
						End Site
						{
							OFFSET 0.00000 -0.00000 1.01524
						}
					}
				}
			}
		}
	}
	JOINT RHipJoint
	{
		OFFSET 0 0 0
		CHANNELS 3 Zrotation Yrotation Xrotation
		JOINT RightUpLeg
		{
			OFFSET -1.43917 -1.42316 1.18090
			CHANNELS 3 Zrotation Yrotation Xrotation
			JOINT RightLeg
			{
				OFFSET -2.25237 -6.18833 0.00000
				CHANNELS 3 Zrotation Yrotation Xrotation
				JOINT RightFoot
				{
					OFFSET -2.46496 -6.77243 0.00000
					CHANNELS 3 Zrotation Yrotation Xrotation
					JOINT RightToeBase
					{
						OFFSET -0.26285 -0.72219 1.76148
						CHANNELS 3 Zrotation Yrotation Xrotation
						End Site
						{
							OFFSET -0.00000 -0.00000 0.95109
						}
					}
				}
			}
		}
	}
	JOINT LowerBack
	{
		OFFSET 0 0 0
		CHANNELS 3 Zrotation Yrotation Xrotation
		JOINT Spine
		{
			OFFSET -0.08725 1.93754 -0.28890
			CHANNELS 3 Zrotation Yrotation Xrotation
			JOINT Spine1
			{
				OFFSET 0.01195 1.94849 0.05967
				CHANNELS 3 Zrotation Yrotation Xrotation
				JOINT Neck
				{
					OFFSET 0 0 0
					CHANNELS 3 Zrotation Yrotation Xrotation
					JOINT Neck1
					{
						OFFSET 0.02762 1.60124 0.34160
						CHANNELS 3 Zrotation Yrotation Xrotation
						JOINT Head
						{
							OFFSET -0.04785 1.66713 -0.24070
							CHANNELS 3 Zrotation Yrotation Xrotation
							End Site
							{
								OFFSET -0.02188 1.68591 -0.11959
							}
						}
					}
				}
				JOINT LeftShoulder
				{
					OFFSET 0 0 0
					CHANNELS 3 Zrotation Yrotation Xrotation
					JOINT LeftArm
					{
						OFFSET 2.59610 1.78696 -0.28854
						CHANNELS 3 Zrotation Yrotation Xrotation
						JOINT LeftForeArm
						{
							OFFSET 5.17853 -0.00000 0.00000
							CHANNELS 3 Zrotation Yrotation Xrotation
							JOINT LeftHand
							{
								OFFSET 3.40399 -0.00000 -0.00000
								CHANNELS 3 Zrotation Yrotation Xrotation
								JOINT LeftFingerBase
								{
									OFFSET 0 0 0
									CHANNELS 3 Zrotation Yrotation Xrotation
									JOINT LeftHandIndex1
									{
										OFFSET 0.70896 -0.00000 -0.00000
										CHANNELS 3 Zrotation Yrotation Xrotation
										End Site
										{
											OFFSET 0.57159 -0.00000 -0.00000
										}
									}
								}
								JOINT LThumb
								{
									OFFSET 0 0 0
									CHANNELS 3 Zrotation Yrotation Xrotation
									End Site
									{
										OFFSET 0.58031 -0.00000 0.58031
									}
								}
							}
						}
					}
				}
				JOINT RightShoulder
				{
					OFFSET 0 0 0
					CHANNELS 3 Zrotation Yrotation Xrotation
					JOINT RightArm
					{
						OFFSET -2.87749 1.55486 -0.73085
						CHANNELS 3 Zrotation Yrotation Xrotation
						JOINT RightForeArm
						{
							OFFSET -5.42351 -0.00000 -0.00000
							CHANNELS 3 Zrotation Yrotation Xrotation
							JOINT RightHand
							{
								OFFSET -3.42066 -0.00000 -0.00000
								CHANNELS 3 Zrotation Yrotation Xrotation
								JOINT RightFingerBase
								{
									OFFSET 0 0 0
									CHANNELS 3 Zrotation Yrotation Xrotation
									JOINT RightHandIndex1
									{
										OFFSET -0.74361 -0.00000 -0.00000
										CHANNELS 3 Zrotation Yrotation Xrotation
										End Site
										{
											OFFSET -0.59952 -0.00000 -0.00000
										}
									}
								}
								JOINT RThumb
								{
									OFFSET 0 0 0
									CHANNELS 3 Zrotation Yrotation Xrotation
									End Site
									{
										OFFSET -0.60867 -0.00000 0.60867
									}
								}
							}
						}
					}
				}
			}
		}
	}
}
MOTION
Frames: 12
Frame Time: 0.0714286
0.00 0.00 0.00 0 0 0 0 0 0 -21 0 0 0 0 0 0 0 0 0 0 0 0 0 0 21 0 0 0 0 0 0 0 0 0 0 0 0 0 0 0 0 0 0 0 0 0 0 -16 0 0 21 0 0 11 0 0 0 -8 0 0 0 0 0 0 0 0 0 0 0 0 0 0 0 0 0 0 0 0 8 0 0 0 0 0 0 0 0 0 0 0 0 0 0 0 0 0
0.00 0.00 0.00 -100.9080 64.2594 155.3370 0.0000 0.0000 0.0000 1.6452 30.7735 -24.9308 6.0235 14.4510 45.0758 0.7199 1.9873 15.4760 0.0953 -1.9907 -5.4799 0.0000 0.0000 0.0000 14.8625 20.1167 -28.8299 -31.1455 -16.7132 124.4143 -1.0467 -13.9796 19.4120 -0.0022 -0.3008 0.8264 -0.7760 -2.4648 15.0337 -3.8962 -3.1379 7.2972 -3.1571 -1.3806 -0.8781 12.8350 12.4973 -13.4004 -14.7188 19.9256 20.4300 -4.1541 9.0780 11.7175 0.0000 -0.0000 0.0000 2.6708 -16.6912 -1.2002 11.8526 -19.5832 -2.0526 -0.0000 -0.0000 6.3330 9.8601 -14.4457 -2.4827 -7.1250 0.0000 -0.0000 -11.9746 15.5364 8.5204 0.0000 -0.0000 0.0000 48.3818 -20.5678 31.8090 -22.0047 32.9824 -6.5884 0.0000 0.0000 5.0434 16.8471 24.9286 7.2735 7.1250 -0.0000 -0.0000 27.2477 -6.1203 27.6062
0.00 0.00 0.00 -106.5050 68.9503 150.7130 0.0000 0.0000 0.0000 1.8939 28.5743 -22.8669 6.0489 14.4756 45.1777 0.5552 5.1656 13.2672 0.0027 -0.3333 -0.9158 0.0000 0.0000 0.0000 14.0222 18.2044 -34.2239 -26.2546 -19.0350 108.5746 -0.7160 -8.9701 15.4137 -0.4204 4.1616 -11.5318 -3.6531 -2.1687 15.0807 -3.7222 -2.7300 10.4959 -1.5084 -1.1801 2.6990 7.9459 7.1186 -12.4830 -1.7389 12.2859 40.4271 0.4411 7.1428 17.6471 -0.0000 0.0000 0.0000 -0.9996 -27.2946 4.7376 12.6957 -20.8397 -2.3439 -0.0000 -0.0000 4.1446 11.0765 -15.8053 -3.0521 -7.1250 0.0000 -0.0000 -11.1314 14.1017 8.2439 -0.0000 0.0000 0.0000 56.2499 0.9324 40.5593 -23.1293 34.2299 -7.2109 0.0000 0.0000 0.1291 18.6094 25.2847 8.1841 7.1250 -0.0000 -0.0000 28.0992 -5.6794 29.0195
0.00 0.00 0.00 -113.1360 71.9164 147.2330 0.0000 0.0000 0.0000 0.3716 27.9301 -25.1790 6.2819 14.6961 46.1030 0.4164 7.4136 11.8472 0.0041 0.4123 1.1329 0.0000 0.0000 0.0000 12.5759 18.5612 -31.4748 -20.4169 -19.9958 91.2189 -0.2845 -8.7698 10.5555 -0.5042 4.5518 -12.6344 -4.8346 -1.4182 12.8095 -2.7185 -1.5562 11.7885 -0.0112 -0.6868 5.4086 7.9508 4.8939 -8.8585 -0.8299 9.3135 43.2100 0.2466 6.3785 18.0451 -0.0000 0.0000 0.0000 -11.0799 -35.7860 20.4178 14.3802 -23.2757 -2.9767 -0.0000 0.0000 -3.4143 11.4345 -17.8051 -3.5391 -7.1250 0.0000 -0.0000 -10.8837 12.0810 8.5237 -0.0000 0.0000 0.0000 62.3626 11.3115 42.7654 -19.1855 29.6485 -5.1223 0.0000 0.0000 2.7827 19.1834 26.0886 8.6987 7.1250 -0.0000 -0.0000 28.2825 -4.8974 29.7494
0.00 0.00 0.00 -119.6130 74.7826 142.6550 0.0000 0.0000 0.0000 0.6197 25.6863 -25.2392 6.5329 14.9256 47.0849 0.0197 12.3412 8.9225 1.3396 7.3284 20.6921 0.0000 0.0000 0.0000 13.4090 17.5118 -25.0209 -14.4641 -19.2488 73.6170 -0.0789 -9.9004 8.2001 -0.5159 4.6035 -12.7809 -3.6794 -0.2861 14.3466 -2.0685 0.3766 13.7185 -0.1139 0.4928 6.6736 7.7869 3.1136 -5.2962 2.2308 5.7771 43.3661 0.9220 5.4722 16.8449 0.0000 -0.0000 0.0000 -20.4709 -44.4283 32.9265 14.2959 -23.1562 -2.9435 -0.0000 0.0000 -5.8030 10.0444 -19.8512 -3.4421 -7.1250 0.0000 -0.0000 -11.7880 10.1741 9.7342 0.0000 -0.0000 0.0000 68.6171 17.2274 42.8247 -15.3009 24.5637 -3.3500 0.0000 0.0000 6.7982 16.8607 27.9613 8.0878 7.1250 -0.0000 -0.0000 26.9031 -3.3229 28.7347
0.00 0.00 0.00 -110.7370 81.2462 158.9410 0.0000 0.0000 0.0000 3.6665 20.7681 -35.2216 8.7108 16.6180 55.0845 0.5132 1.3696 13.1279 0.0789 1.8119 4.9861 0.0000 0.0000 0.0000 17.5398 15.1003 -24.9467 -8.9029 -16.7449 55.7539 0.0233 -10.9294 7.3036 -0.3639 3.8750 -10.7253 1.4010 -1.2621 23.8861 1.1872 0.6441 18.5284 0.5509 1.4806 7.4339 6.5255 1.4618 -6.0409 4.9334 2.2758 43.7885 1.8489 4.0705 17.0827 -0.0000 -0.0000 0.0000 -39.1258 -56.8713 42.2556 14.8582 -23.9481 -3.1681 -0.0000 0.0000 -6.5084 6.1931 -23.5822 -2.4858 -7.1250 0.0000 -0.0000 -14.1990 6.8633 12.8103 -0.0000 -0.0000 0.0000 70.8162 33.7811 38.9082 -11.2565 18.6803 -1.8572 0.0000 0.0000 16.3912 9.5979 32.4924 5.1904 7.1250 -0.0000 -0.0000 22.8504 0.7477 25.2352
0.00 0.00 0.00 -139.1430 81.6796 158.1390 0.0000 0.0000 0.0000 -2.0334 4.9451 -63.4933 11.4693 18.1572 64.2964 1.0755 -0.3050 19.7196 0.1770 2.7102 7.4730 0.0000 0.0000 0.0000 10.5062 7.2834 -60.3265 -13.4803 -18.9488 70.6108 -0.3804 -7.1671 11.3386 -0.4610 4.3555 -12.0791 -2.5553 -0.7157 34.4505 1.1402 0.6031 15.8720 2.3522 1.1476 -0.0820 5.0016 -0.9110 -6.4061 5.8619 -1.6160 43.5627 1.8780 2.0797 17.0484 -0.0000 0.0000 0.0000 -41.2384 -23.2299 43.8445 46.2980 -51.3888 -23.2487 -0.0000 0.0000 -39.0523 28.0306 -18.5061 -9.5915 -7.1250 0.0000 -0.0000 -0.0697 9.2134 0.0576 -0.0000 0.0000 0.0000 57.4311 11.3853 37.4147 -35.4861 45.1561 -15.1570 0.0000 -0.0000 -8.6006 -4.9162 27.7086 -2.2903 7.1250 -0.0000 -0.0000 14.9839 -2.9839 14.7031
0.00 0.00 0.00 -146.4310 80.6637 162.6100 0.0000 0.0000 0.0000 -3.5124 4.3328 -77.1901 12.3999 18.5546 67.2508 1.7744 1.9659 24.6514 0.1943 2.8389 7.8305 0.0000 0.0000 0.0000 7.4550 6.6108 -74.4838 -14.9670 -19.3815 75.1372 -0.4263 -7.4729 11.9815 -0.3588 3.8479 -10.6491 -4.9838 -0.5961 35.0061 0.8566 0.1379 16.4569 3.4783 0.7866 0.4521 4.9981 -0.3295 -6.3426 5.1797 -1.0479 38.1882 1.2872 1.7024 14.1751 -0.0000 0.0000 0.0000 -41.9923 2.6126 62.1967 63.0171 -57.0617 -36.8626 -0.0000 0.0000 -54.9283 22.7673 -10.8051 -4.4987 -7.1250 0.0000 -0.0000 -3.0367 18.2954 1.9326 -0.0000 0.0000 0.0000 62.9557 -11.5764 40.5873 -71.9026 58.7256 -44.3943 0.0000 -0.0000 -41.5262 -19.1711 17.7738 -6.0581 7.1250 -0.0000 -0.0000 5.7994 -11.3076 4.5738
0.00 0.00 0.00 -165.4240 78.9564 170.5500 0.0000 0.0000 0.0000 -9.2047 3.4723 -111.1018 16.0379 19.6194 78.3447 2.3121 -2.1189 29.5674 0.9395 6.1737 17.2893 0.0000 0.0000 0.0000 6.0724 -0.1231 -110.0287 -18.8939 -19.9706 86.7643 -0.0603 -11.3423 8.8133 -0.0023 0.3093 -0.8498 -3.9172 -0.9474 31.9193 0.3642 -0.1687 15.2675 2.7014 0.5585 0.0602 2.5609 -1.2877 -7.4559 4.1909 -2.4962 24.4236 0.7850 -0.2555 8.8828 -0.0000 -0.0000 0.0000 -51.2271 2.9688 70.9062 50.2630 -53.1010 -26.3843 -0.0000 0.0000 -61.6939 34.2201 -18.7323 -12.3208 -7.1250 0.0000 -0.0000 3.8667 7.7229 -3.3197 -0.0000 -0.0000 0.0000 74.7848 -8.3723 45.9688 -42.1238 49.2790 -20.0343 0.0000 -0.0000 -64.9077 -36.4241 16.0457 -11.5280 7.1250 -0.0000 -0.0000 -5.7033 -10.3878 -4.6050
0.00 0.00 0.00 -170.6660 81.2852 161.6940 0.0000 0.0000 0.0000 0.1085 4.5706 -104.8623 19.9560 20.0000 89.8712 1.7660 -7.0952 28.5047 0.8192 5.7754 16.1341 0.0000 0.0000 0.0000 9.4891 -6.6338 -111.2555 -24.5594 -19.4941 103.4396 -0.0508 -2.5655 -5.9850 -0.0001 -0.0459 0.1260 -3.7309 -0.2206 33.7144 0.1431 0.7389 15.0212 1.8844 1.0810 -0.7223 1.0267 -2.7849 -9.0905 6.3257 -4.9511 24.9828 1.5217 -1.2663 9.5173 0.0000 -0.0000 0.0000 -63.6266 6.3025 61.1378 32.0392 -42.5784 -12.7674 -0.0000 0.0000 -48.4437 28.6702 -23.8847 -12.4840 -7.1250 0.0000 -0.0000 -0.3730 3.2002 0.3516 0.0000 -0.0000 0.0000 77.4555 -6.4376 49.5531 -25.1901 36.3977 -8.4024 0.0000 -0.0000 -60.7808 -34.8767 17.4963 -11.8351 7.1250 -0.0000 -0.0000 -4.4786 -9.0127 -3.7335
0.00 0.00 0.00 -204.2540 84.4335 122.4630 0.0000 0.0000 0.0000 6.0785 5.9983 -93.5528 22.2219 19.8812 96.5088 0.5907 -13.8525 25.3405 0.0542 1.5018 4.1306 0.0000 0.0000 0.0000 5.8532 -10.5452 -107.4970 -29.7740 -17.5350 119.7590 -0.2817 -0.5852 -10.2542 -0.3337 -3.7126 10.2695 -4.2445 1.3051 36.2062 -0.6529 2.5131 15.3808 0.7120 2.0684 -1.2203 0.2548 -3.8349 -8.2694 8.4273 -6.7050 25.2009 2.2139 -1.8987 9.6091 -0.0000 0.0000 0.0000 -69.2427 7.3187 54.1776 21.7808 -32.7285 -6.4670 -0.0000 0.0000 -39.9987 27.1552 -30.0908 -14.4225 -7.1250 0.0000 -0.0000 -2.2602 -3.0714 2.3798 -0.0000 0.0000 0.0000 82.5321 -5.8848 47.1802 -15.4091 24.7130 -3.3952 0.0000 -0.0000 -54.0355 -32.0322 19.3230 -11.6964 7.1250 -0.0000 -0.0000 -2.3891 -7.5251 -2.0575
0.00 0.00 0.00 -261.3370 81.8517 63.4113 0.0000 0.0000 0.0000 8.7845 7.8635 -84.3533 23.8365 19.6434 101.2814 -1.5840 -23.5383 19.1548 0.1681 -2.6416 -7.2825 0.0000 0.0000 0.0000 8.8228 -17.4081 -106.3661 -33.8510 -14.5712 134.4234 -0.8358 2.7945 -16.5560 -0.3048 -3.5495 9.8127 -5.1336 1.5370 37.0499 -1.9843 2.2147 14.7662 -0.1833 1.9113 -1.9546 3.9332 -2.9332 -5.9719 6.8785 -5.4569 25.9931 1.2308 -1.1056 9.2632 -0.0000 -0.0000 0.0000 -77.1939 2.6647 25.9068 6.6236 -11.2982 -0.6559 -0.0000 0.0000 -12.6557 16.7741 -29.6988 -8.4937 -7.1250 0.0000 -0.0000 -8.1951 -0.5259 8.3556 -0.0000 -0.0000 0.0000 88.3406 -3.3628 28.0672 -6.3768 10.8892 -0.6084 0.0000 -0.0000 -29.0493 -32.5319 25.1723 -15.1793 7.1250 -0.0000 -0.0000 -1.7474 -0.8546 -1.7220
